<?xml version="1.0" encoding="utf-8" standalone="no"?>
<!DOCTYPE svg PUBLIC "-//W3C//DTD SVG 1.1//EN"
  "http://www.w3.org/Graphics/SVG/1.1/DTD/svg11.dtd">
<svg xmlns:xlink="http://www.w3.org/1999/xlink" width="864pt" height="518.4pt" viewBox="0 0 864 518.4" xmlns="http://www.w3.org/2000/svg" version="1.1">
 <metadata>
  <rdf:RDF xmlns:dc="http://purl.org/dc/elements/1.1/" xmlns:cc="http://creativecommons.org/ns#" xmlns:rdf="http://www.w3.org/1999/02/22-rdf-syntax-ns#">
   <cc:Work>
    <dc:type rdf:resource="http://purl.org/dc/dcmitype/StillImage"/>
    <dc:format>image/svg+xml</dc:format>
    <dc:creator>
     <cc:Agent>
      <dc:title>Matplotlib v3.10.7, https://matplotlib.org/</dc:title>
     </cc:Agent>
    </dc:creator>
   </cc:Work>
  </rdf:RDF>
 </metadata>
 <defs>
  <style type="text/css">*{stroke-linejoin: round; stroke-linecap: butt}</style>
 </defs>
 <g id="figure_1">
  <g id="patch_1">
   <path d="M 0 518.4 
L 864 518.4 
L 864 0 
L 0 0 
z
" style="fill: #f7f4ed"/>
  </g>
  <g id="axes_1">
   <g id="patch_2">
    <path d="M 77.76 404.352 
L 838.08 404.352 
L 838.08 72.576 
L 77.76 72.576 
z
" style="fill: #f7f4ed"/>
   </g>
   <g id="FillBetweenPolyCollection_1">
    <defs>
     <path id="m59d11eefed" d="M 77.76 -419.412362 
L 77.76 -385.339792 
L 85.3632 -382.787669 
L 92.9664 -380.235546 
L 100.5696 -377.683423 
L 108.1728 -375.1313 
L 115.776 -372.579177 
L 123.3792 -370.027054 
L 130.9824 -367.474931 
L 138.5856 -364.922807 
L 146.1888 -362.370684 
L 153.792 -359.818561 
L 161.3952 -357.266438 
L 168.9984 -354.714315 
L 176.6016 -352.162192 
L 184.2048 -349.610069 
L 191.808 -347.057946 
L 199.4112 -344.505823 
L 207.0144 -341.9537 
L 214.6176 -339.401577 
L 222.2208 -336.849454 
L 229.824 -334.297331 
L 237.4272 -331.745207 
L 245.0304 -329.193084 
L 252.6336 -326.640961 
L 260.2368 -324.088838 
L 267.84 -321.536715 
L 275.4432 -318.984592 
L 283.0464 -316.432469 
L 290.6496 -313.880346 
L 298.2528 -311.328223 
L 305.856 -308.7761 
L 313.4592 -306.223977 
L 321.0624 -303.671854 
L 328.6656 -301.119731 
L 336.2688 -298.567607 
L 343.872 -296.015484 
L 351.4752 -293.463361 
L 359.0784 -290.911238 
L 366.6816 -288.359115 
L 374.2848 -285.806992 
L 381.888 -283.254869 
L 389.4912 -280.702746 
L 397.0944 -278.150623 
L 404.6976 -275.5985 
L 412.3008 -273.046377 
L 419.904 -270.494254 
L 427.5072 -267.942131 
L 435.1104 -265.390007 
L 442.7136 -262.837884 
L 450.3168 -260.285761 
L 457.92 -257.733638 
L 465.5232 -255.181515 
L 473.1264 -252.629392 
L 480.7296 -250.077269 
L 488.3328 -247.525146 
L 495.936 -244.973023 
L 503.5392 -242.4209 
L 511.1424 -239.868777 
L 518.7456 -237.316654 
L 526.3488 -234.764531 
L 533.952 -232.212407 
L 541.5552 -229.660284 
L 549.1584 -227.108161 
L 556.7616 -224.556038 
L 564.3648 -222.003915 
L 571.968 -219.451792 
L 579.5712 -216.899669 
L 587.1744 -214.347546 
L 594.7776 -211.795423 
L 602.3808 -209.2433 
L 609.984 -206.691177 
L 617.5872 -204.139054 
L 625.1904 -201.586931 
L 632.7936 -199.034807 
L 640.3968 -196.482684 
L 648 -193.930561 
L 655.6032 -191.378438 
L 663.2064 -188.826315 
L 670.8096 -186.274192 
L 678.4128 -183.722069 
L 686.016 -181.169946 
L 693.6192 -178.617823 
L 701.2224 -176.0657 
L 708.8256 -173.513577 
L 716.4288 -170.961454 
L 724.032 -168.409331 
L 731.6352 -165.857207 
L 739.2384 -163.305084 
L 746.8416 -160.752961 
L 754.4448 -158.200838 
L 762.048 -155.648715 
L 769.6512 -153.096592 
L 777.2544 -150.544469 
L 784.8576 -147.992346 
L 792.4608 -145.440223 
L 800.064 -142.8881 
L 807.6672 -140.335977 
L 815.2704 -137.783854 
L 822.8736 -135.231731 
L 830.4768 -132.679607 
L 838.08 -130.127484 
L 838.08 -164.200054 
L 838.08 -164.200054 
L 830.4768 -166.752177 
L 822.8736 -169.3043 
L 815.2704 -171.856423 
L 807.6672 -174.408546 
L 800.064 -176.96067 
L 792.4608 -179.512793 
L 784.8576 -182.064916 
L 777.2544 -184.617039 
L 769.6512 -187.169162 
L 762.048 -189.721285 
L 754.4448 -192.273408 
L 746.8416 -194.825531 
L 739.2384 -197.377654 
L 731.6352 -199.929777 
L 724.032 -202.4819 
L 716.4288 -205.034023 
L 708.8256 -207.586146 
L 701.2224 -210.13827 
L 693.6192 -212.690393 
L 686.016 -215.242516 
L 678.4128 -217.794639 
L 670.8096 -220.346762 
L 663.2064 -222.898885 
L 655.6032 -225.451008 
L 648 -228.003131 
L 640.3968 -230.555254 
L 632.7936 -233.107377 
L 625.1904 -235.6595 
L 617.5872 -238.211623 
L 609.984 -240.763746 
L 602.3808 -243.31587 
L 594.7776 -245.867993 
L 587.1744 -248.420116 
L 579.5712 -250.972239 
L 571.968 -253.524362 
L 564.3648 -256.076485 
L 556.7616 -258.628608 
L 549.1584 -261.180731 
L 541.5552 -263.732854 
L 533.952 -266.284977 
L 526.3488 -268.8371 
L 518.7456 -271.389223 
L 511.1424 -273.941346 
L 503.5392 -276.49347 
L 495.936 -279.045593 
L 488.3328 -281.597716 
L 480.7296 -284.149839 
L 473.1264 -286.701962 
L 465.5232 -289.254085 
L 457.92 -291.806208 
L 450.3168 -294.358331 
L 442.7136 -296.910454 
L 435.1104 -299.462577 
L 427.5072 -302.0147 
L 419.904 -304.566823 
L 412.3008 -307.118946 
L 404.6976 -309.67107 
L 397.0944 -312.223193 
L 389.4912 -314.775316 
L 381.888 -317.327439 
L 374.2848 -319.879562 
L 366.6816 -322.431685 
L 359.0784 -324.983808 
L 351.4752 -327.535931 
L 343.872 -330.088054 
L 336.2688 -332.640177 
L 328.6656 -335.1923 
L 321.0624 -337.744423 
L 313.4592 -340.296546 
L 305.856 -342.84867 
L 298.2528 -345.400793 
L 290.6496 -347.952916 
L 283.0464 -350.505039 
L 275.4432 -353.057162 
L 267.84 -355.609285 
L 260.2368 -358.161408 
L 252.6336 -360.713531 
L 245.0304 -363.265654 
L 237.4272 -365.817777 
L 229.824 -368.3699 
L 222.2208 -370.922023 
L 214.6176 -373.474146 
L 207.0144 -376.02627 
L 199.4112 -378.578393 
L 191.808 -381.130516 
L 184.2048 -383.682639 
L 176.6016 -386.234762 
L 168.9984 -388.786885 
L 161.3952 -391.339008 
L 153.792 -393.891131 
L 146.1888 -396.443254 
L 138.5856 -398.995377 
L 130.9824 -401.5475 
L 123.3792 -404.099623 
L 115.776 -406.651746 
L 108.1728 -409.20387 
L 100.5696 -411.755993 
L 92.9664 -414.308116 
L 85.3632 -416.860239 
L 77.76 -419.412362 
z
" style="stroke: #176b78; stroke-opacity: 0.12"/>
    </defs>
    <g clip-path="url(#pb76f67784d)">
     <use xlink:href="#m59d11eefed" x="0" y="518.4" style="fill: #176b78; fill-opacity: 0.12; stroke: #176b78; stroke-opacity: 0.12"/>
    </g>
   </g>
   <g id="matplotlib.axis_1">
    <g id="xtick_1">
     <g id="line2d_1">
      <path d="M 77.76 404.352 
L 77.76 72.576 
" clip-path="url(#pb76f67784d)" style="fill: none; stroke: #b0b0b0; stroke-opacity: 0.15; stroke-width: 0.8; stroke-linecap: square"/>
     </g>
     <g id="line2d_2">
      <defs>
       <path id="m097b934434" d="M 0 0 
L 0 3.5 
" style="stroke: #000000; stroke-width: 0.8"/>
      </defs>
      <g>
       <use xlink:href="#m097b934434" x="77.76" y="404.352" style="stroke: #000000; stroke-width: 0.8"/>
      </g>
     </g>
     <g id="text_1">
      <text style="font-size: 12px; font-family: 'DejaVu Sans'; text-anchor: middle" x="77.76" y="420.470125" transform="rotate(-0 77.76 420.470125)">0</text>
     </g>
    </g>
    <g id="xtick_2">
     <g id="line2d_3">
      <path d="M 229.824 404.352 
L 229.824 72.576 
" clip-path="url(#pb76f67784d)" style="fill: none; stroke: #b0b0b0; stroke-opacity: 0.15; stroke-width: 0.8; stroke-linecap: square"/>
     </g>
     <g id="line2d_4">
      <g>
       <use xlink:href="#m097b934434" x="229.824" y="404.352" style="stroke: #000000; stroke-width: 0.8"/>
      </g>
     </g>
     <g id="text_2">
      <text style="font-size: 12px; font-family: 'DejaVu Sans'; text-anchor: middle" x="229.824" y="420.470125" transform="rotate(-0 229.824 420.470125)">20</text>
     </g>
    </g>
    <g id="xtick_3">
     <g id="line2d_5">
      <path d="M 381.888 404.352 
L 381.888 72.576 
" clip-path="url(#pb76f67784d)" style="fill: none; stroke: #b0b0b0; stroke-opacity: 0.15; stroke-width: 0.8; stroke-linecap: square"/>
     </g>
     <g id="line2d_6">
      <g>
       <use xlink:href="#m097b934434" x="381.888" y="404.352" style="stroke: #000000; stroke-width: 0.8"/>
      </g>
     </g>
     <g id="text_3">
      <text style="font-size: 12px; font-family: 'DejaVu Sans'; text-anchor: middle" x="381.888" y="420.470125" transform="rotate(-0 381.888 420.470125)">40</text>
     </g>
    </g>
    <g id="xtick_4">
     <g id="line2d_7">
      <path d="M 533.952 404.352 
L 533.952 72.576 
" clip-path="url(#pb76f67784d)" style="fill: none; stroke: #b0b0b0; stroke-opacity: 0.15; stroke-width: 0.8; stroke-linecap: square"/>
     </g>
     <g id="line2d_8">
      <g>
       <use xlink:href="#m097b934434" x="533.952" y="404.352" style="stroke: #000000; stroke-width: 0.8"/>
      </g>
     </g>
     <g id="text_4">
      <text style="font-size: 12px; font-family: 'DejaVu Sans'; text-anchor: middle" x="533.952" y="420.470125" transform="rotate(-0 533.952 420.470125)">60</text>
     </g>
    </g>
    <g id="xtick_5">
     <g id="line2d_9">
      <path d="M 686.016 404.352 
L 686.016 72.576 
" clip-path="url(#pb76f67784d)" style="fill: none; stroke: #b0b0b0; stroke-opacity: 0.15; stroke-width: 0.8; stroke-linecap: square"/>
     </g>
     <g id="line2d_10">
      <g>
       <use xlink:href="#m097b934434" x="686.016" y="404.352" style="stroke: #000000; stroke-width: 0.8"/>
      </g>
     </g>
     <g id="text_5">
      <text style="font-size: 12px; font-family: 'DejaVu Sans'; text-anchor: middle" x="686.016" y="420.470125" transform="rotate(-0 686.016 420.470125)">80</text>
     </g>
    </g>
    <g id="xtick_6">
     <g id="line2d_11">
      <path d="M 838.08 404.352 
L 838.08 72.576 
" clip-path="url(#pb76f67784d)" style="fill: none; stroke: #b0b0b0; stroke-opacity: 0.15; stroke-width: 0.8; stroke-linecap: square"/>
     </g>
     <g id="line2d_12">
      <g>
       <use xlink:href="#m097b934434" x="838.08" y="404.352" style="stroke: #000000; stroke-width: 0.8"/>
      </g>
     </g>
     <g id="text_6">
      <text style="font-size: 12px; font-family: 'DejaVu Sans'; text-anchor: middle" x="838.08" y="420.470125" transform="rotate(-0 838.08 420.470125)">100</text>
     </g>
    </g>
    <g id="text_7">
     <text style="font-size: 12px; font-family: 'DejaVu Sans'; text-anchor: middle" x="457.92" y="436.083875" transform="rotate(-0 457.92 436.083875)">Assumed share of 20M annual growth budget reaching market (%)</text>
    </g>
   </g>
   <g id="matplotlib.axis_2">
    <g id="ytick_1">
     <g id="line2d_13">
      <path d="M 77.76 366.070154 
L 838.08 366.070154 
" clip-path="url(#pb76f67784d)" style="fill: none; stroke: #b0b0b0; stroke-opacity: 0.15; stroke-width: 0.8; stroke-linecap: square"/>
     </g>
     <g id="line2d_14">
      <defs>
       <path id="ma1c67140d1" d="M 0 0 
L -3.5 0 
" style="stroke: #000000; stroke-width: 0.8"/>
      </defs>
      <g>
       <use xlink:href="#ma1c67140d1" x="77.76" y="366.070154" style="stroke: #000000; stroke-width: 0.8"/>
      </g>
     </g>
     <g id="text_8">
      <text style="font-size: 12px; font-family: 'DejaVu Sans'; text-anchor: end" x="70.76" y="370.629216" transform="rotate(-0 70.76 370.629216)">−5</text>
     </g>
    </g>
    <g id="ytick_2">
     <g id="line2d_15">
      <path d="M 77.76 302.267077 
L 838.08 302.267077 
" clip-path="url(#pb76f67784d)" style="fill: none; stroke: #b0b0b0; stroke-opacity: 0.15; stroke-width: 0.8; stroke-linecap: square"/>
     </g>
     <g id="line2d_16">
      <g>
       <use xlink:href="#ma1c67140d1" x="77.76" y="302.267077" style="stroke: #000000; stroke-width: 0.8"/>
      </g>
     </g>
     <g id="text_9">
      <text style="font-size: 12px; font-family: 'DejaVu Sans'; text-anchor: end" x="70.76" y="306.826139" transform="rotate(-0 70.76 306.826139)">0</text>
     </g>
    </g>
    <g id="ytick_3">
     <g id="line2d_17">
      <path d="M 77.76 238.464 
L 838.08 238.464 
" clip-path="url(#pb76f67784d)" style="fill: none; stroke: #b0b0b0; stroke-opacity: 0.15; stroke-width: 0.8; stroke-linecap: square"/>
     </g>
     <g id="line2d_18">
      <g>
       <use xlink:href="#ma1c67140d1" x="77.76" y="238.464" style="stroke: #000000; stroke-width: 0.8"/>
      </g>
     </g>
     <g id="text_10">
      <text style="font-size: 12px; font-family: 'DejaVu Sans'; text-anchor: end" x="70.76" y="243.023062" transform="rotate(-0 70.76 243.023062)">5</text>
     </g>
    </g>
    <g id="ytick_4">
     <g id="line2d_19">
      <path d="M 77.76 174.660923 
L 838.08 174.660923 
" clip-path="url(#pb76f67784d)" style="fill: none; stroke: #b0b0b0; stroke-opacity: 0.15; stroke-width: 0.8; stroke-linecap: square"/>
     </g>
     <g id="line2d_20">
      <g>
       <use xlink:href="#ma1c67140d1" x="77.76" y="174.660923" style="stroke: #000000; stroke-width: 0.8"/>
      </g>
     </g>
     <g id="text_11">
      <text style="font-size: 12px; font-family: 'DejaVu Sans'; text-anchor: end" x="70.76" y="179.219986" transform="rotate(-0 70.76 179.219986)">10</text>
     </g>
    </g>
    <g id="ytick_5">
     <g id="line2d_21">
      <path d="M 77.76 110.857846 
L 838.08 110.857846 
" clip-path="url(#pb76f67784d)" style="fill: none; stroke: #b0b0b0; stroke-opacity: 0.15; stroke-width: 0.8; stroke-linecap: square"/>
     </g>
     <g id="line2d_22">
      <g>
       <use xlink:href="#ma1c67140d1" x="77.76" y="110.857846" style="stroke: #000000; stroke-width: 0.8"/>
      </g>
     </g>
     <g id="text_12">
      <text style="font-size: 12px; font-family: 'DejaVu Sans'; text-anchor: end" x="70.76" y="115.416909" transform="rotate(-0 70.76 115.416909)">15</text>
     </g>
    </g>
    <g id="text_13">
     <text style="font-size: 12px; font-family: 'DejaVu Sans'; text-anchor: middle" x="46.57375" y="238.464" transform="rotate(-90 46.57375 238.464)">Modeled net absorption (million UNI / year)</text>
    </g>
   </g>
   <g id="line2d_23">
    <path d="M 77.76 133.060208 
L 85.3632 135.612331 
L 92.9664 138.164454 
L 100.5696 140.716577 
L 108.1728 143.2687 
L 115.776 145.820823 
L 123.3792 148.372946 
L 130.9824 150.925069 
L 138.5856 153.477193 
L 146.1888 156.029316 
L 153.792 158.581439 
L 161.3952 161.133562 
L 168.9984 163.685685 
L 176.6016 166.237808 
L 184.2048 168.789931 
L 191.808 171.342054 
L 199.4112 173.894177 
L 207.0144 176.4463 
L 214.6176 178.998423 
L 222.2208 181.550546 
L 229.824 184.102669 
L 237.4272 186.654793 
L 245.0304 189.206916 
L 252.6336 191.759039 
L 260.2368 194.311162 
L 267.84 196.863285 
L 275.4432 199.415408 
L 283.0464 201.967531 
L 290.6496 204.519654 
L 298.2528 207.071777 
L 305.856 209.6239 
L 313.4592 212.176023 
L 321.0624 214.728146 
L 328.6656 217.280269 
L 336.2688 219.832393 
L 343.872 222.384516 
L 351.4752 224.936639 
L 359.0784 227.488762 
L 366.6816 230.040885 
L 374.2848 232.593008 
L 381.888 235.145131 
L 389.4912 237.697254 
L 397.0944 240.249377 
L 404.6976 242.8015 
L 412.3008 245.353623 
L 419.904 247.905746 
L 427.5072 250.457869 
L 435.1104 253.009993 
L 442.7136 255.562116 
L 450.3168 258.114239 
L 457.92 260.666362 
L 465.5232 263.218485 
L 473.1264 265.770608 
L 480.7296 268.322731 
L 488.3328 270.874854 
L 495.936 273.426977 
L 503.5392 275.9791 
L 511.1424 278.531223 
L 518.7456 281.083346 
L 526.3488 283.635469 
L 533.952 286.187593 
L 541.5552 288.739716 
L 549.1584 291.291839 
L 556.7616 293.843962 
L 564.3648 296.396085 
L 571.968 298.948208 
L 579.5712 301.500331 
L 587.1744 304.052454 
L 594.7776 306.604577 
L 602.3808 309.1567 
L 609.984 311.708823 
L 617.5872 314.260946 
L 625.1904 316.813069 
L 632.7936 319.365193 
L 640.3968 321.917316 
L 648 324.469439 
L 655.6032 327.021562 
L 663.2064 329.573685 
L 670.8096 332.125808 
L 678.4128 334.677931 
L 686.016 337.230054 
L 693.6192 339.782177 
L 701.2224 342.3343 
L 708.8256 344.886423 
L 716.4288 347.438546 
L 724.032 349.990669 
L 731.6352 352.542793 
L 739.2384 355.094916 
L 746.8416 357.647039 
L 754.4448 360.199162 
L 762.048 362.751285 
L 769.6512 365.303408 
L 777.2544 367.855531 
L 784.8576 370.407654 
L 792.4608 372.959777 
L 800.064 375.5119 
L 807.6672 378.064023 
L 815.2704 380.616146 
L 822.8736 383.168269 
L 830.4768 385.720393 
L 838.08 388.272516 
" clip-path="url(#pb76f67784d)" style="fill: none; stroke: #b25230; stroke-width: 2.5; stroke-linecap: square"/>
   </g>
   <g id="line2d_24">
    <path d="M 77.76 98.987638 
L 85.3632 101.539761 
L 92.9664 104.091884 
L 100.5696 106.644007 
L 108.1728 109.19613 
L 115.776 111.748254 
L 123.3792 114.300377 
L 130.9824 116.8525 
L 138.5856 119.404623 
L 146.1888 121.956746 
L 153.792 124.508869 
L 161.3952 127.060992 
L 168.9984 129.613115 
L 176.6016 132.165238 
L 184.2048 134.717361 
L 191.808 137.269484 
L 199.4112 139.821607 
L 207.0144 142.37373 
L 214.6176 144.925854 
L 222.2208 147.477977 
L 229.824 150.0301 
L 237.4272 152.582223 
L 245.0304 155.134346 
L 252.6336 157.686469 
L 260.2368 160.238592 
L 267.84 162.790715 
L 275.4432 165.342838 
L 283.0464 167.894961 
L 290.6496 170.447084 
L 298.2528 172.999207 
L 305.856 175.55133 
L 313.4592 178.103454 
L 321.0624 180.655577 
L 328.6656 183.2077 
L 336.2688 185.759823 
L 343.872 188.311946 
L 351.4752 190.864069 
L 359.0784 193.416192 
L 366.6816 195.968315 
L 374.2848 198.520438 
L 381.888 201.072561 
L 389.4912 203.624684 
L 397.0944 206.176807 
L 404.6976 208.72893 
L 412.3008 211.281054 
L 419.904 213.833177 
L 427.5072 216.3853 
L 435.1104 218.937423 
L 442.7136 221.489546 
L 450.3168 224.041669 
L 457.92 226.593792 
L 465.5232 229.145915 
L 473.1264 231.698038 
L 480.7296 234.250161 
L 488.3328 236.802284 
L 495.936 239.354407 
L 503.5392 241.90653 
L 511.1424 244.458654 
L 518.7456 247.010777 
L 526.3488 249.5629 
L 533.952 252.115023 
L 541.5552 254.667146 
L 549.1584 257.219269 
L 556.7616 259.771392 
L 564.3648 262.323515 
L 571.968 264.875638 
L 579.5712 267.427761 
L 587.1744 269.979884 
L 594.7776 272.532007 
L 602.3808 275.08413 
L 609.984 277.636254 
L 617.5872 280.188377 
L 625.1904 282.7405 
L 632.7936 285.292623 
L 640.3968 287.844746 
L 648 290.396869 
L 655.6032 292.948992 
L 663.2064 295.501115 
L 670.8096 298.053238 
L 678.4128 300.605361 
L 686.016 303.157484 
L 693.6192 305.709607 
L 701.2224 308.26173 
L 708.8256 310.813854 
L 716.4288 313.365977 
L 724.032 315.9181 
L 731.6352 318.470223 
L 739.2384 321.022346 
L 746.8416 323.574469 
L 754.4448 326.126592 
L 762.048 328.678715 
L 769.6512 331.230838 
L 777.2544 333.782961 
L 784.8576 336.335084 
L 792.4608 338.887207 
L 800.064 341.43933 
L 807.6672 343.991454 
L 815.2704 346.543577 
L 822.8736 349.0957 
L 830.4768 351.647823 
L 838.08 354.199946 
" clip-path="url(#pb76f67784d)" style="fill: none; stroke: #176b78; stroke-width: 2.5; stroke-linecap: square"/>
   </g>
   <g id="line2d_25">
    <path d="M 77.76 302.267077 
L 838.08 302.267077 
" clip-path="url(#pb76f67784d)" style="fill: none; stroke: #293447; stroke-linecap: square"/>
   </g>
   <g id="patch_3">
    <path d="M 77.76 404.352 
L 77.76 72.576 
" style="fill: none; stroke: #000000; stroke-width: 0.8; stroke-linejoin: miter; stroke-linecap: square"/>
   </g>
   <g id="patch_4">
    <path d="M 77.76 404.352 
L 838.08 404.352 
" style="fill: none; stroke: #000000; stroke-width: 0.8; stroke-linejoin: miter; stroke-linecap: square"/>
   </g>
   <g id="PathCollection_1">
    <defs>
     <path id="m87a9a2c561" d="M 0 3 
C 0.795609 3 1.55874 2.683901 2.12132 2.12132 
C 2.683901 1.55874 3 0.795609 3 0 
C 3 -0.795609 2.683901 -1.55874 2.12132 -2.12132 
C 1.55874 -2.683901 0.795609 -3 0 -3 
C -0.795609 -3 -1.55874 -2.683901 -2.12132 -2.12132 
C -2.683901 -1.55874 -3 -0.795609 -3 0 
C -3 0.795609 -2.683901 1.55874 -2.12132 2.12132 
C -1.55874 2.683901 -0.795609 3 0 3 
z
" style="stroke: #b25230"/>
    </defs>
    <g clip-path="url(#pb76f67784d)">
     <use xlink:href="#m87a9a2c561" x="581.855464" y="302.267077" style="fill: #b25230; stroke: #b25230"/>
    </g>
   </g>
   <g id="patch_5">
    <path d="M 553.310941 350.679259 
Q 567.075345 327.334506 580.83975 303.989752 
" style="fill: none; stroke: #b25230; stroke-linecap: round"/>
   </g>
   <g id="text_14">
    <text style="font-size: 12px; font-family: 'DejaVu Sans'; text-anchor: start; fill: #b25230" x="528.633064" y="363.518031" transform="rotate(-0 528.633064 363.518031)">66.3%</text>
   </g>
   <g id="PathCollection_2">
    <defs>
     <path id="mb206ac7603" d="M 0 3 
C 0.795609 3 1.55874 2.683901 2.12132 2.12132 
C 2.683901 1.55874 3 0.795609 3 0 
C 3 -0.795609 2.683901 -1.55874 2.12132 -2.12132 
C 1.55874 -2.683901 0.795609 -3 0 -3 
C -0.795609 -3 -1.55874 -2.683901 -2.12132 -2.12132 
C -2.683901 -1.55874 -3 -0.795609 -3 0 
C -3 0.795609 -2.683901 1.55874 -2.12132 2.12132 
C -1.55874 2.683901 -0.795609 3 0 3 
z
" style="stroke: #176b78"/>
    </defs>
    <g clip-path="url(#pb76f67784d)">
     <use xlink:href="#mb206ac7603" x="683.363328" y="302.267077" style="fill: #176b78; stroke: #176b78"/>
    </g>
   </g>
   <g id="patch_6">
    <path d="M 658.880138 325.500658 
Q 670.396981 314.571629 681.913823 303.6426 
" style="fill: none; stroke: #176b78; stroke-linecap: round"/>
   </g>
   <g id="text_15">
    <text style="font-size: 12px; font-family: 'DejaVu Sans'; text-anchor: start; fill: #176b78" x="630.140928" y="337.9968" transform="rotate(-0 630.140928 337.9968)">79.7%</text>
   </g>
   <g id="legend_1">
    <g id="line2d_26">
     <path d="M 658.707812 86.984281 
L 669.707812 86.984281 
L 680.707812 86.984281 
" style="fill: none; stroke: #b25230; stroke-width: 2.5; stroke-linecap: square"/>
    </g>
    <g id="text_16">
     <text style="font-size: 11px; font-family: 'DejaVu Sans'; text-anchor: start" x="689.507812" y="90.834281" transform="rotate(-0 689.507812 90.834281)">13.26M annualized proxy</text>
    </g>
    <g id="line2d_27">
     <path d="M 658.707812 103.130219 
L 669.707812 103.130219 
L 680.707812 103.130219 
" style="fill: none; stroke: #176b78; stroke-width: 2.5; stroke-linecap: square"/>
    </g>
    <g id="text_17">
     <text style="font-size: 11px; font-family: 'DejaVu Sans'; text-anchor: start" x="689.507812" y="106.980219" transform="rotate(-0 689.507812 106.980219)">15.93M annualized proxy</text>
    </g>
   </g>
  </g>
  <g id="text_18">
   <text style="font-weight: 700; font-size: 19px; font-family: 'DejaVu Sans'; text-anchor: start" x="77.76" y="24.805031" transform="rotate(-0 77.76 24.805031)">The sign changes with assumed sell-through</text>
  </g>
  <g id="text_19">
   <text style="font-size: 10px; font-family: 'DejaVu Sans'" transform="translate(77.76 491.650187)">B − 20M × sell-through; new mint assumption = 0. Historical August inputs.</text>
   <text style="font-size: 10px; font-family: 'DejaVu Sans'" transform="translate(77.76 502.848)">Positive = conditional removal; negative = conditional release. Not measured net exchange buying.</text>
  </g>
 </g>
 <defs>
  <clipPath id="pb76f67784d">
   <rect x="77.76" y="72.576" width="760.32" height="331.776"/>
  </clipPath>
 </defs>
</svg>
